<svg width="320" height="243" viewBox="0 0 320 243" fill="none" xmlns="http://www.w3.org/2000/svg">
<g clip-path="url(#clip0_304_3372)">
<path d="M128.148 50.3313H126.984V18.4513C126.984 16.0282 126.507 13.6289 125.58 11.3903C124.653 9.15169 123.293 7.11763 121.58 5.40427C119.867 3.69091 117.833 2.33179 115.594 1.40453C113.355 0.477262 110.956 2.05301e-06 108.533 0H40.9909C36.0973 -9.32885e-06 31.4041 1.94395 27.9438 5.40423C24.4835 8.86451 22.5396 13.5577 22.5396 18.4512V193.348C22.5395 195.771 23.0168 198.17 23.9441 200.409C24.8713 202.647 26.2304 204.681 27.9438 206.395C29.6572 208.108 31.6912 209.467 33.9298 210.394C36.1684 211.322 38.5678 211.799 40.9908 211.799H108.533C113.427 211.799 118.12 209.855 121.58 206.395C125.04 202.934 126.984 198.241 126.984 193.348V73.0241H128.148V50.3313Z" fill="#3F3D56"/>
<path d="M109.277 4.80038H100.461C100.866 5.79441 101.021 6.87289 100.912 7.94082C100.802 9.00875 100.432 10.0334 99.8328 10.9244C99.234 11.8154 98.4253 12.5455 97.4778 13.0503C96.5304 13.5551 95.4734 13.8192 94.3998 13.8193H55.7058C54.6323 13.8192 53.5753 13.5551 52.6278 13.0503C51.6804 12.5455 50.8717 11.8154 50.2729 10.9244C49.6741 10.0334 49.3036 9.00876 49.194 7.94083C49.0845 6.8729 49.2392 5.79441 49.6447 4.80038H41.4101C39.6006 4.80038 37.8088 5.15679 36.137 5.84926C34.4652 6.54173 32.9462 7.5567 31.6667 8.83622C30.3872 10.1157 29.3722 11.6347 28.6797 13.3065C27.9873 14.9783 27.6309 16.7701 27.6309 18.5796V193.219C27.6309 195.029 27.9873 196.821 28.6797 198.492C29.3722 200.164 30.3872 201.683 31.6667 202.963C32.9462 204.242 34.4652 205.257 36.137 205.95C37.8088 206.642 39.6005 206.998 41.4101 206.998H109.277C111.087 206.998 112.879 206.642 114.551 205.95C116.222 205.257 117.741 204.242 119.021 202.963C120.3 201.683 121.315 200.164 122.008 198.492C122.7 196.821 123.057 195.029 123.057 193.219V18.5796C123.057 16.7701 122.7 14.9783 122.008 13.3065C121.315 11.6347 120.3 10.1157 119.021 8.83622C117.741 7.5567 116.222 6.54173 114.551 5.84926C112.879 5.15679 111.087 4.80038 109.277 4.80038Z" fill="white"/>
<path d="M149.796 211.829H0.890828C0.787174 211.829 0.687765 211.788 0.614471 211.714C0.541176 211.641 0.5 211.542 0.5 211.438C0.5 211.334 0.541176 211.235 0.614471 211.162C0.687765 211.088 0.787174 211.047 0.890828 211.047H149.796C149.9 211.047 150 211.088 150.073 211.162C150.146 211.235 150.187 211.334 150.187 211.438C150.187 211.542 150.146 211.641 150.073 211.714C150 211.788 149.9 211.829 149.796 211.829Z" fill="#CBCBCB"/>
<path d="M75.3438 135.101C93.5714 135.101 108.348 120.325 108.348 102.098C108.348 83.8699 93.5714 69.0935 75.3438 69.0935C57.1162 69.0935 42.3398 83.8699 42.3398 102.098C42.3398 120.325 57.1162 135.101 75.3438 135.101Z" fill="#00F57F"/>
<path d="M72.0733 114.688C71.3308 114.689 70.6081 114.449 70.014 114.003L69.9772 113.976L62.2208 108.042C61.8616 107.767 61.5601 107.423 61.3336 107.031C61.1071 106.639 60.9601 106.207 60.9008 105.758C60.8415 105.309 60.8712 104.853 60.9882 104.416C61.1051 103.979 61.3071 103.569 61.5825 103.21C61.8579 102.85 62.2013 102.549 62.5933 102.322C62.9852 102.096 63.4178 101.949 63.8666 101.889C64.3153 101.83 64.7714 101.86 65.2087 101.977C65.6459 102.094 66.0559 102.296 66.4151 102.571L71.4391 106.424L83.3109 90.9356C83.5862 90.5765 83.9296 90.2752 84.3213 90.0488C84.7131 89.8224 85.1456 89.6754 85.5941 89.6161C86.0427 89.5569 86.4985 89.5866 86.9356 89.7035C87.3727 89.8204 87.7825 90.0223 88.1416 90.2976L88.1426 90.2983L88.0689 90.4006L88.1446 90.2983C88.869 90.8551 89.343 91.6765 89.4625 92.5823C89.5819 93.4881 89.3372 94.4044 88.7819 95.1299L74.818 113.339C74.4949 113.759 74.0796 114.098 73.6041 114.331C73.1287 114.565 72.6059 114.685 72.0764 114.683L72.0733 114.688Z" fill="white"/>
<path d="M271.83 215.073C272.232 214.424 272.705 213.821 273.24 213.277C273.46 213.048 273.693 212.832 273.933 212.623C275.392 211.324 277.171 210.437 279.087 210.054C281.002 209.67 282.986 209.804 284.832 210.441C286.679 211.078 288.323 212.196 289.595 213.679C290.866 215.161 291.72 216.956 292.068 218.879C293.68 212.918 289.484 207.046 285.266 202.536C281.045 198.027 276.221 193.081 276.245 186.904C276.257 183.466 277.938 180.399 280.477 178.126C280.555 178.057 280.634 177.988 280.714 177.921C283.782 175.291 287.731 173.915 291.769 174.069C299.273 174.47 305.825 179.513 310.375 185.495C317.698 195.12 320.908 208.631 315.78 219.588C311.271 229.224 301.652 234.947 291.836 239.547C290.466 240.189 289.098 240.813 287.732 241.416C287.723 241.419 287.714 241.425 287.704 241.428C287.639 241.456 287.573 241.485 287.511 241.515C287.23 241.639 286.948 241.764 286.668 241.887L286.798 241.971L287.201 242.232C287.062 242.148 286.923 242.066 286.783 241.981C286.742 241.955 286.697 241.931 286.656 241.905C281.835 239.012 276.947 235.952 273.616 231.436C270.162 226.747 268.773 220.03 271.83 215.073Z" fill="#F1F1F1"/>
<path d="M303.997 204.183C305.064 206.612 305.772 209.183 306.098 211.816C306.354 214.164 306.257 216.536 305.812 218.856C304.855 223.622 302.767 228.088 299.724 231.879C297.428 234.757 294.778 237.334 291.836 239.547C290.466 240.19 289.098 240.813 287.732 241.417C287.723 241.419 287.713 241.425 287.704 241.428C287.639 241.457 287.573 241.486 287.511 241.515C287.23 241.64 286.948 241.764 286.668 241.887L286.798 241.971L287.201 242.233C287.061 242.148 286.923 242.066 286.783 241.981C286.742 241.955 286.697 241.931 286.656 241.905C287.717 238.194 287.873 234.283 287.111 230.499C286.349 226.715 284.691 223.168 282.276 220.157C279.848 217.184 276.752 214.826 273.24 213.277C273.46 213.048 273.693 212.833 273.933 212.623C275.286 213.244 276.581 213.984 277.804 214.833C282.176 217.855 285.459 222.205 287.167 227.238C288.692 231.804 288.883 236.711 287.716 241.381C287.958 241.223 288.201 241.061 288.437 240.899C292.929 237.87 297.068 234.233 300.186 229.772C302.875 226.002 304.596 221.629 305.197 217.037C305.795 212.021 304.54 207.089 302.3 202.613C299.827 197.825 296.712 193.398 293.039 189.454C289.351 185.401 285.18 181.815 280.62 178.776C280.517 178.707 280.445 178.6 280.419 178.479C280.392 178.358 280.413 178.232 280.477 178.126C280.526 178.029 280.611 177.956 280.714 177.922C280.766 177.908 280.82 177.907 280.873 177.918C280.926 177.928 280.975 177.951 281.018 177.983C281.581 178.359 282.139 178.738 282.691 179.128C287.283 182.379 291.453 186.189 295.105 190.468C298.635 194.593 301.847 199.177 303.997 204.183Z" fill="white"/>
<path d="M205.701 15.3246C209.572 15.3246 212.71 12.1865 212.71 8.31544C212.71 4.4444 209.572 1.3063 205.701 1.3063C201.83 1.3063 198.692 4.4444 198.692 8.31544C198.692 12.1865 201.83 15.3246 205.701 15.3246Z" fill="#F1F1F1"/>
<path d="M292.856 109.123C295.216 109.123 297.129 107.21 297.129 104.85C297.129 102.49 295.216 100.577 292.856 100.577C290.496 100.577 288.583 102.49 288.583 104.85C288.583 107.21 290.496 109.123 292.856 109.123Z" fill="#F1F1F1"/>
<path d="M167.791 120.848C170.151 120.848 172.064 118.935 172.064 116.575C172.064 114.215 170.151 112.302 167.791 112.302C165.431 112.302 163.518 114.215 163.518 116.575C163.518 118.935 165.431 120.848 167.791 120.848Z" fill="#F1F1F1"/>
<path d="M170.203 242.704H319.109C319.213 242.704 319.312 242.663 319.385 242.59C319.459 242.517 319.5 242.417 319.5 242.313C319.5 242.21 319.459 242.11 319.385 242.037C319.312 241.964 319.213 241.923 319.109 241.923H170.203C170.1 241.923 170 241.964 169.927 242.037C169.854 242.11 169.812 242.21 169.812 242.313C169.812 242.417 169.854 242.517 169.927 242.59C170 242.663 170.1 242.704 170.203 242.704Z" fill="#CBCBCB"/>
<path d="M302.677 37.7677C302.872 36.3795 302.552 34.9679 301.776 33.8002C301 32.6325 299.823 31.79 298.467 31.4322C297.112 31.0744 295.672 31.2263 294.421 31.8591C293.17 32.4918 292.195 33.5615 291.68 34.8653L279.597 48.718L283.142 58.6203L295.294 42.4341C296.087 42.6881 296.926 42.7651 297.752 42.6598C298.578 42.5545 299.371 42.2693 300.075 41.8244C300.779 41.3795 301.376 40.7857 301.826 40.0848C302.275 39.3839 302.566 38.593 302.677 37.7677Z" fill="#FFB7B7"/>
<path d="M252.589 91.6684L292.7 48.8614L287.29 40.26L236.981 82.8072L252.589 91.6684Z" fill="#3F3D56"/>
<path d="M243.637 65.6592C251.408 65.6592 257.707 59.3599 257.707 51.5894C257.707 43.8188 251.408 37.5195 243.637 37.5195C235.867 37.5195 229.567 43.8188 229.567 51.5894C229.567 59.3599 235.867 65.6592 243.637 65.6592Z" fill="#2F2E41"/>
<path d="M244.768 43.6412C247.796 40.571 251.459 38.2018 255.501 36.7004C258.096 35.7392 260.92 35.1453 263.633 35.6912C266.345 36.237 268.91 38.1135 269.667 40.775C270.286 42.9512 269.647 45.2944 268.687 47.343C267.726 49.3917 266.444 51.2914 265.668 53.4165C264.875 55.5848 264.637 57.9167 264.974 60.2005C265.312 62.4843 266.214 64.6476 267.6 66.4942C268.985 68.3407 270.81 69.8119 272.909 70.7743C275.007 71.7368 277.313 72.1598 279.616 72.0052C276.951 72.3625 274.494 73.615 271.889 74.2817C269.284 74.9483 266.209 74.9031 264.273 73.0368C262.225 71.0622 262.184 67.8516 262.283 65.0082C262.43 60.7814 262.577 56.5546 262.725 52.3278C262.8 50.1722 262.864 47.9475 262.086 45.9356C261.309 43.9236 259.462 42.1619 257.305 42.1802C255.67 42.194 254.223 43.1843 252.912 44.1609C251.601 45.1375 250.214 46.1794 248.586 46.3247C246.957 46.47 245.098 45.265 245.22 43.6348L244.768 43.6412Z" fill="#2F2E41"/>
<path d="M190.199 146.062C188.848 146.437 187.407 146.303 186.148 145.687C184.889 145.07 183.9 144.013 183.368 142.716C182.836 141.419 182.799 139.972 183.263 138.649C183.726 137.326 184.659 136.219 185.885 135.539L198.04 121.749L208.32 123.97L193.861 138.133C194.216 138.886 194.402 139.707 194.406 140.54C194.409 141.373 194.23 142.196 193.881 142.952C193.532 143.708 193.021 144.378 192.385 144.915C191.749 145.453 191.003 145.844 190.199 146.062Z" fill="#FFB7B7"/>
<path d="M230.189 96.6929L199.894 134.72L190.66 130.481L226.268 75.0437L230.189 96.6929Z" fill="#3F3D56"/>
<path d="M206.016 211.521L198.796 211.407L199.664 236.016H206.015L206.016 211.521Z" fill="#FFB7B7"/>
<path d="M207.635 233.943L195.128 233.942H195.128C193.014 233.942 190.987 234.782 189.492 236.277C187.997 237.772 187.157 239.799 187.157 241.913V242.172L207.635 242.172L207.635 233.943Z" fill="#2F2E41"/>
<path d="M253.821 204.994L245.934 210.057L261.711 229.038L267.055 225.607L253.821 204.994Z" fill="#FFB7B7"/>
<path d="M267.298 222.987L256.773 229.744L256.773 229.744C254.994 230.886 253.742 232.688 253.292 234.753C252.842 236.819 253.23 238.978 254.372 240.757L254.512 240.975L271.744 229.912L267.298 222.987Z" fill="#2F2E41"/>
<path d="M256.631 129.849C256.631 129.849 239.106 71.6438 233.474 70.8573C227.843 70.0707 218.768 85.792 218.768 85.792C207.003 100.803 194.872 149.427 194.872 149.427C194.872 149.427 215.096 150.693 229.879 158.558C244.663 166.424 262.11 158.16 262.11 158.16L256.631 129.849Z" fill="#3F3D56"/>
<path opacity="0.1" d="M256.631 129.849C256.631 129.849 239.106 71.6438 233.474 70.8573C227.843 70.0707 221.073 85.9515 221.073 85.9515C215.211 110.183 194.872 149.427 194.872 149.427C194.872 149.427 215.096 150.693 229.879 158.558C244.663 166.424 262.11 158.16 262.11 158.16L256.631 129.849Z" fill="black"/>
<path d="M242.254 112.434V141.682L245.696 184.049L262.892 216.097L254.685 221.96L231.235 191.475L221.96 161.206L207.394 228.213L196.451 227.431L204.051 134.527L218.473 108.377L242.254 112.434Z" fill="#2F2E41"/>
<path d="M224.584 84.1452C219.112 89.6168 224.193 95.4792 224.193 95.4792L217.94 109.549L242.562 116.193L251.167 77.7441L245.304 71.4909C233.579 71.1 233.573 70.8571 233.573 70.8571C231.519 72.8674 224.584 84.1452 224.584 84.1452Z" fill="#00F57F"/>
<path d="M252.159 73.7608C251.04 72.9354 249.769 72.34 248.419 72.0092C247.069 71.6784 245.667 71.6187 244.294 71.8336C242.921 72.0486 241.604 72.5339 240.419 73.2614C239.235 73.9889 238.207 74.9441 237.394 76.0718C231.204 84.6905 225.481 98.6074 233.367 115.964C246.029 143.834 257.048 158.101 261.528 158.1C261.724 158.101 261.918 158.071 262.104 158.009C264.861 157.074 268.848 152.408 269.57 148.296C269.828 146.825 269.767 144.775 268.006 143.367C262.951 139.323 253.875 126.733 251.044 110.161C249.479 101.004 252.513 92.6626 255.334 87.2778C256.526 85.0497 256.874 82.4669 256.316 80.0027C255.758 77.5385 254.33 75.358 252.295 73.861L252.159 73.7608Z" fill="#3F3D56"/>
<path d="M244.361 64.2769C249.38 61.5333 251.224 55.2404 248.481 50.2213C245.737 45.2023 239.444 43.3577 234.425 46.1013C229.406 48.845 227.562 55.1379 230.305 60.157C233.049 65.176 239.342 67.0206 244.361 64.2769Z" fill="#FFB7B7"/>
<path d="M224.828 54.4061H239.783L239.936 52.2589L240.703 54.4061H243.006L243.31 50.1505L244.83 54.4061H249.285V54.1952C249.282 51.2326 248.104 48.3922 246.009 46.2973C243.914 44.2023 241.073 43.0239 238.111 43.0206H236.002C233.04 43.0239 230.199 44.2023 228.104 46.2973C226.009 48.3922 224.831 51.2326 224.828 54.1952V54.4061Z" fill="#2F2E41"/>
<path d="M247.026 62.1239L253.408 60.053V44.5545H241.353L241.651 44.8525C245.804 48.9995 250.422 63.7127 247.026 62.1239Z" fill="#2F2E41"/>
</g>
<defs>
<clipPath id="clip0_304_3372">
<rect width="319" height="242.704" fill="white" transform="translate(0.5)"/>
</clipPath>
</defs>
</svg>
